<svg width="123" height="89" viewBox="0 0 123 89" fill="none" xmlns="http://www.w3.org/2000/svg">
<path d="M41.9308 69.5746L109.127 2.37862C110.713 0.792874 112.563 0 114.677 0C116.791 0 118.641 0.792874 120.227 2.37862C121.813 3.96437 122.606 5.84876 122.606 8.0318C122.606 10.2148 121.813 12.0966 120.227 13.6771L47.4809 86.6214C45.8952 88.2071 44.0451 89 41.9308 89C39.8165 89 37.9664 88.2071 36.3807 86.6214L2.28713 52.5278C0.701389 50.9421 -0.0597704 49.0603 0.00365941 46.8826C0.0670893 44.7048 0.894318 42.8204 2.48535 41.2294C4.07638 39.6384 5.96078 38.8455 8.13854 38.8508C10.3163 38.8561 12.198 39.6489 13.7838 41.2294L41.9308 69.5746Z" fill="#4A4B47"/>
</svg>
