<svg width="30" height="30" viewBox="0 0 30 30" fill="none" xmlns="http://www.w3.org/2000/svg">
<path fill-rule="evenodd" clip-rule="evenodd" d="M0.44932 2.7272C0.163145 2.41978 0.00734883 2.01319 0.0147542 1.59306C0.0221597 1.17294 0.192188 0.772095 0.489019 0.474977C0.78585 0.177858 1.18631 0.00766523 1.60602 0.00025265C2.02574 -0.00715993 2.43195 0.148787 2.73907 0.435239L8.41807 6.11757C10.3773 5.03862 12.6087 4.27535 15 4.27535C18.3093 4.27535 21.3076 5.73918 23.7162 7.47545C26.1312 9.21604 28.0429 11.3004 29.2007 12.7016L29.2094 12.7124C29.7278 13.3567 30 14.1719 30 15C30 15.8281 29.7278 16.6433 29.2094 17.2876L29.2007 17.3006C27.7585 19.0579 26.1296 20.6529 24.3426 22.0575L29.5507 27.2728C29.8369 27.5802 29.9927 27.9868 29.9853 28.4069C29.9779 28.8271 29.8078 29.2279 29.511 29.525C29.2142 29.8221 28.8137 29.9923 28.394 29.9997C27.9743 30.0072 27.5681 29.8512 27.2609 29.5648L0.44932 2.7272ZM19.357 17.0693C19.7843 16.1693 19.9229 15.159 19.7536 14.177C19.5843 13.1951 19.1155 12.2897 18.4116 11.5851C17.7077 10.8805 16.8032 10.4113 15.8222 10.2418C14.8412 10.0724 13.8319 10.2111 12.9328 10.6388L19.357 17.0693ZM0.801422 12.7016C1.49051 11.8648 2.44745 10.788 3.6204 9.68525L18.966 25.0457C17.6901 25.4882 16.3503 25.7175 15 25.7246C11.6907 25.7246 8.6924 24.263 6.28385 22.5267C3.86882 20.784 1.9571 18.6996 0.799262 17.3006L0.790622 17.2876C0.276608 16.6363 -0.00204581 15.83 1.13085e-05 15C1.13085e-05 14.1719 0.272189 13.3567 0.790622 12.7124L0.801422 12.7016Z" fill="#4A4B47"/>
</svg>
