<svg width="55" height="39" viewBox="0 0 55 39" fill="none" xmlns="http://www.w3.org/2000/svg">
<path fill-rule="evenodd" clip-rule="evenodd" d="M11.5226 5.8149C15.9344 2.6559 21.4344 0 27.5001 0C33.5658 0 39.0657 2.6598 43.4775 5.8149C47.9089 8.9817 51.4132 12.7725 53.5346 15.3192L53.5543 15.3387C54.5011 16.5087 55 17.9946 55 19.5C55 21.0054 54.5011 22.4874 53.5543 23.6613L53.5346 23.6808C51.4132 26.2275 47.9089 30.0183 43.4775 33.1851C39.0657 36.348 33.5658 39 27.5001 39C21.4344 39 15.9344 36.3402 11.5226 33.189C7.09117 30.0144 3.58689 26.2236 1.46546 23.6769L1.44582 23.6574C0.501449 22.4753 -0.00853026 21.0087 0.000107959 19.5C0.000107959 17.9946 0.499036 16.5126 1.44582 15.3387L1.46546 15.3192C3.58689 12.7725 7.09117 8.9817 11.5226 5.8149ZM27.5001 28.275C28.6608 28.275 29.8103 28.048 30.8827 27.607C31.9551 27.1661 32.9296 26.5197 33.7504 25.7049C34.5712 24.89 35.2223 23.9227 35.6665 22.858C36.1107 21.7934 36.3393 20.6523 36.3393 19.5C36.3393 18.3477 36.1107 17.2066 35.6665 16.142C35.2223 15.0773 34.5712 14.11 33.7504 13.2951C32.9296 12.4803 31.9551 11.8339 30.8827 11.393C29.8103 10.952 28.6608 10.725 27.5001 10.725C25.1557 10.725 22.9074 11.6495 21.2497 13.2951C19.5921 14.9408 18.6608 17.1727 18.6608 19.5C18.6608 21.8273 19.5921 24.0592 21.2497 25.7049C22.9074 27.3505 25.1557 28.275 27.5001 28.275Z" fill="white"/>
</svg>
