<svg width="55" height="55" viewBox="0 0 55 55" fill="none" xmlns="http://www.w3.org/2000/svg">
<path fill-rule="evenodd" clip-rule="evenodd" d="M0.823753 4.99503C0.299099 4.43198 0.0134729 3.68727 0.0270495 2.91779C0.0406261 2.14831 0.352345 1.41414 0.896535 0.869949C1.44073 0.325759 2.1749 0.0140393 2.94438 0.000462743C3.71386 -0.0131139 4.45857 0.272512 5.02162 0.797166L15.4331 11.2047C19.0251 9.22854 23.116 7.83057 27.5 7.83057C33.5671 7.83057 39.0639 10.5117 43.4796 13.6917C47.9072 16.8797 51.412 20.6974 53.5347 23.2637L53.5505 23.2835C54.501 24.4636 55 25.9566 55 27.4734C55 28.9902 54.501 30.4832 53.5505 31.6634L53.5347 31.6871C50.8906 34.9058 47.9042 37.8271 44.6281 40.3997L54.1763 49.9518C54.7009 50.5149 54.9865 51.2596 54.973 52.0291C54.9594 52.7985 54.6477 53.5327 54.1035 54.0769C53.5593 54.6211 52.8251 54.9328 52.0556 54.9464C51.2862 54.96 50.5414 54.6743 49.9784 54.1497L0.823753 4.99503ZM35.4878 31.2634C36.2712 29.615 36.5252 27.7646 36.2149 25.9661C35.9046 24.1676 35.0452 22.5093 33.7547 21.2188C32.4641 19.9283 30.8058 19.0689 29.0073 18.7585C27.2089 18.4482 25.3584 18.7022 23.71 19.4856L35.4878 31.2634ZM1.46927 23.2637C2.73259 21.7311 4.48699 19.7589 6.6374 17.7391L34.771 45.8728C32.4319 46.6831 29.9755 47.1033 27.5 47.1163C21.4329 47.1163 15.9361 44.4391 11.5204 41.2591C7.09283 38.0671 3.58801 34.2494 1.46531 31.6871L1.44947 31.6634C0.507115 30.4704 -0.00375065 28.9937 2.07322e-05 27.4734C2.07322e-05 25.9566 0.499012 24.4636 1.44947 23.2835L1.46927 23.2637Z" fill="white"/>
</svg>
