<svg width="30" height="21" viewBox="0 0 30 21" fill="none" xmlns="http://www.w3.org/2000/svg">
<path fill-rule="evenodd" clip-rule="evenodd" d="M6.28505 3.1311C8.69147 1.4301 11.6915 0 15 0C18.3086 0 21.3086 1.4322 23.715 3.1311C26.1322 4.8363 28.0436 6.8775 29.2007 8.2488L29.2114 8.2593C29.7279 8.8893 30 9.6894 30 10.5C30 11.3106 29.7279 12.1086 29.2114 12.7407L29.2007 12.7512C28.0436 14.1225 26.1322 16.1637 23.715 17.8689C21.3086 19.572 18.3086 21 15 21C11.6915 21 8.69147 19.5678 6.28505 17.871C3.86791 16.1616 1.95648 14.1204 0.799343 12.7491L0.788629 12.7386C0.273518 12.1021 -0.00465287 11.3124 5.88867e-05 10.5C5.88867e-05 9.6894 0.272201 8.8914 0.788629 8.2593L0.799343 8.2488C1.95648 6.8775 3.86791 4.8363 6.28505 3.1311ZM15 15.225C15.6332 15.225 16.2601 15.1028 16.8451 14.8653C17.4301 14.6279 17.9616 14.2798 18.4093 13.8411C18.857 13.4023 19.2121 12.8814 19.4544 12.3082C19.6967 11.7349 19.8214 11.1205 19.8214 10.5C19.8214 9.8795 19.6967 9.26508 19.4544 8.69182C19.2121 8.11856 18.857 7.59768 18.4093 7.15892C17.9616 6.72016 17.4301 6.37212 16.8451 6.13467C16.2601 5.89722 15.6332 5.775 15 5.775C13.7213 5.775 12.495 6.27281 11.5908 7.15892C10.6866 8.04503 10.1786 9.24685 10.1786 10.5C10.1786 11.7531 10.6866 12.955 11.5908 13.8411C12.495 14.7272 13.7213 15.225 15 15.225Z" fill="#4A4B47"/>
</svg>
