<svg width="44" height="49" viewBox="0 0 44 49" fill="none" xmlns="http://www.w3.org/2000/svg">
<path d="M8.16668 49C6.66945 49 5.38819 48.4673 4.3229 47.4021C3.2576 46.3368 2.72405 45.0546 2.72223 43.5555V8.16667C1.95094 8.16667 1.30486 7.90533 0.78401 7.38267C0.263158 6.86 0.0018242 6.21392 9.38696e-06 5.44444C-0.00180543 4.67496 0.259528 4.02889 0.78401 3.50622C1.30849 2.98356 1.95456 2.72222 2.72223 2.72222H13.6111C13.6111 1.95093 13.8725 1.30485 14.3951 0.784C14.9178 0.263148 15.5639 0.00181481 16.3333 0H27.2222C27.9935 0 28.6405 0.261334 29.1632 0.784C29.6858 1.30667 29.9463 1.95274 29.9445 2.72222H40.8333C41.6046 2.72222 42.2516 2.98356 42.7743 3.50622C43.297 4.02889 43.5574 4.67496 43.5556 5.44444C43.5537 6.21392 43.2924 6.86091 42.7716 7.38539C42.2507 7.90987 41.6046 8.17029 40.8333 8.16667V43.5555C40.8333 45.0528 40.3007 46.3349 39.2354 47.4021C38.1701 48.4692 36.8879 49.0018 35.3889 49H8.16668ZM35.3889 8.16667H8.16668V43.5555H35.3889V8.16667ZM16.3333 38.1111C17.1046 38.1111 17.7516 37.8498 18.2743 37.3271C18.797 36.8044 19.0574 36.1584 19.0556 35.3889V16.3333C19.0556 15.562 18.7942 14.916 18.2716 14.3951C17.7489 13.8743 17.1028 13.6129 16.3333 13.6111C15.5639 13.6093 14.9178 13.8706 14.3951 14.3951C13.8725 14.9196 13.6111 15.5657 13.6111 16.3333V35.3889C13.6111 36.1602 13.8725 36.8072 14.3951 37.3298C14.9178 37.8525 15.5639 38.1129 16.3333 38.1111ZM27.2222 38.1111C27.9935 38.1111 28.6405 37.8498 29.1632 37.3271C29.6858 36.8044 29.9463 36.1584 29.9445 35.3889V16.3333C29.9445 15.562 29.6831 14.916 29.1605 14.3951C28.6378 13.8743 27.9917 13.6129 27.2222 13.6111C26.4527 13.6093 25.8067 13.8706 25.284 14.3951C24.7613 14.9196 24.5 15.5657 24.5 16.3333V35.3889C24.5 36.1602 24.7613 36.8072 25.284 37.3298C25.8067 37.8525 26.4527 38.1129 27.2222 38.1111Z" fill="white"/>
</svg>
